<svg version="1.1" id="Layer_1" xmlns="http://www.w3.org/2000/svg" xmlns:xlink="http://www.w3.org/1999/xlink" x="0px" y="0px" viewBox="0 0 223.8 54.9" style="enable-background:new 0 0 223.8 54.9;" xml:space="preserve">
 <style type="text/css">
  .st0{fill:#004185;}
	.st1{fill:#F57E20;}
 </style>
 <g>
  <path class="st0" d="M81.5,40.9c-4,0.9-12.1,2.2-11.2-3.7c0.7-4.4,7.7-4.4,12.2-3.8L81.5,40.9z M66.8,24.6c5.8-1.3,16.4-4.8,16.3,4
		c-5.1,0.1-8.9-0.6-13.7,1.1c-12.3,4.5-8.6,21.8,13.1,16.6c6.7-1.6,5.5-2,6.5-8.6c1.2-7.7,3.9-17.4-6.8-20c-3-0.7-10.6-0.3-13.5,0.7
		L66.8,24.6z M167.1,29.4L154,29.5C154.9,21.4,168.4,18.9,167.1,29.4 M169.8,40c-3.8,0.7-6.8,2.2-11.1,1.5c-3.8-0.7-6-2.7-5.7-7.1
		l20.4,0c0.6-6.1,1.7-15.2-8.5-16.8c-18.5-2.8-25.5,20.7-13.7,27.7c4.7,2.8,15.7,2,16.9,0.1C168.5,44.9,169.6,40.9,169.8,40
		 M199.5,39.7l-1.6,5.5c6.9,4,27,2.1,22.7-9.8c-0.8-2.2-2.5-3.5-4.5-4.7c-1.3-0.8-5-2.5-5.8-3.4c-2.4-2.9,1.7-6.8,11.4-2.9
		c0.6-0.8,0.7-1.5,1.1-2.6c0.4-1.1,0.6-1.7,0.9-2.8c-5.2-1.2-10.2-2.6-15.8-0.5c-4.2,1.6-11.4,9.1,0.4,15.5c1.8,1,4.9,2.1,4.8,4.4
		c-0.1,2.6-3.4,3.1-6.1,3C203.5,41.4,202.4,40.5,199.5,39.7 M198.7,18.9c-5.2-1-10.6-2.7-16.1-0.3c-2.3,1-3.8,2.1-4.8,4.4
		c-4.4,10.3,11.1,10.9,10.4,15.6c-0.4,2.4-3.6,2.9-6.3,2.8c-3.1-0.1-4.5-0.8-7.1-1.7c-0.8,1-1.6,3.9-1.7,5.5
		c3.6,2.1,12.1,2.4,16.3,1c4.1-1.4,8.8-5.7,6.1-11.4c-2-4.1-9.3-5.7-10.4-8c-1.5-3,2.1-4,4.4-4.1c3.2-0.1,4.9,0.8,7.5,1.7
		L198.7,18.9z M120,19c-5.7-1.5-11.3-2.5-17.1-0.1C92.7,23,89.7,38,98,44.4c4.1,3.1,10.5,3.1,16.5,2.1l2.1-6.3
		c-4,0.9-7.7,2-11.5-0.3c-6-3.7-4.6-13.4,2.4-16c4.6-1.7,6.8-0.3,10.7,0.6L120,19z M142.8,40.3c-4.2,0.8-7.4,1.9-11.3-0.2
		c-5.7-3.1-5.2-13.1,2.2-16.1c4.6-1.9,6.8-0.1,10.7,0.5l1.9-5.4c-6-1.6-12.8-2.7-18.4,0.4c-12,6.6-13.6,30.1,10.3,27.4
		c2.6-0.3,2.5,0,3.2-2.2C141.9,43.2,142.5,41.8,142.8,40.3">
  </path>
  <g>
   <polygon class="st1" points="22.4,4.4 47.2,29.1 25.8,50.5 4.4,29.1 14.7,18.5 10.5,18.5 0,29.1 25.8,54.9 51.5,29.1 22.5,0 		">
   </polygon>
   <polygon class="st1" points="22.5,18.6 18,18.5 7.7,29.1 25.8,47.2 43.9,29.1 22.5,7.6 22.4,11.8 39.7,29.1 25.8,43 12,29.1 		">
   </polygon>
   <path class="st1" d="M25.7,22.9l6.3,6.2l-6.3,6.2l-6.3-6.2L25.7,22.9z M36.3,29.1L25.7,18.5L15.1,29.1l10.6,10.6L36.3,29.1z">
   </path>
  </g>
 </g>
</svg>